<svg width="1440" height="900" viewBox="0 0 1440 900" fill="none" xmlns="http://www.w3.org/2000/svg" role="img" aria-labelledby="title desc">
  <title id="title">UI Auditor AI screenshot</title>
  <desc id="desc">A product interface showing screenshot upload, audit score, checks, and findings.</desc>
  <rect width="1440" height="900" fill="#EEF1F5"/>
  <rect x="80" y="64" width="1280" height="96" rx="8" fill="white" stroke="#D3DAE6"/>
  <rect x="112" y="88" width="48" height="48" rx="12" fill="#101828"/>
  <path d="M122 113L134 125L153 102" stroke="#19A974" stroke-width="5" stroke-linecap="round" stroke-linejoin="round"/>
  <rect x="184" y="90" width="220" height="22" rx="5" fill="#101828"/>
  <rect x="184" y="122" width="330" height="14" rx="4" fill="#526071"/>
  <rect x="1052" y="96" width="92" height="32" rx="6" fill="#DCFCE7"/>
  <rect x="1160" y="96" width="112" height="32" rx="6" fill="#F7F8FB" stroke="#D3DAE6"/>
  <rect x="80" y="200" width="590" height="620" rx="8" fill="white" stroke="#D3DAE6"/>
  <rect x="112" y="232" width="160" height="20" rx="5" fill="#101828"/>
  <rect x="112" y="264" width="230" height="14" rx="4" fill="#526071"/>
  <rect x="112" y="320" width="494" height="320" rx="8" fill="#F7F8FB" stroke="#D3DAE6" stroke-dasharray="12 10"/>
  <circle cx="359" cy="440" r="48" fill="#DFF7EC"/>
  <path d="M337 443L354 460L384 421" stroke="#19A974" stroke-width="8" stroke-linecap="round" stroke-linejoin="round"/>
  <rect x="270" y="520" width="178" height="22" rx="5" fill="#101828"/>
  <rect x="246" y="556" width="226" height="14" rx="4" fill="#526071"/>
  <rect x="704" y="200" width="656" height="620" rx="8" fill="white" stroke="#D3DAE6"/>
  <rect x="736" y="232" width="180" height="20" rx="5" fill="#101828"/>
  <rect x="736" y="264" width="310" height="14" rx="4" fill="#526071"/>
  <circle cx="842" cy="410" r="82" fill="#19A974"/>
  <circle cx="842" cy="410" r="62" fill="white"/>
  <rect x="808" y="386" width="68" height="46" rx="8" fill="#101828"/>
  <rect x="976" y="336" width="280" height="16" rx="4" fill="#526071"/>
  <rect x="976" y="366" width="240" height="12" rx="4" fill="#D3DAE6"/>
  <rect x="976" y="406" width="280" height="12" rx="6" fill="#E2E8F0"/>
  <rect x="976" y="406" width="250" height="12" rx="6" fill="#19A974"/>
  <rect x="976" y="444" width="280" height="12" rx="6" fill="#E2E8F0"/>
  <rect x="976" y="444" width="238" height="12" rx="6" fill="#19A974"/>
  <rect x="736" y="560" width="360" height="82" rx="8" fill="#ECFDF5" stroke="#A7F3D0"/>
  <rect x="760" y="586" width="210" height="16" rx="4" fill="#065F46"/>
  <rect x="760" y="612" width="290" height="12" rx="4" fill="#138A60"/>
  <rect x="736" y="670" width="560" height="82" rx="8" fill="#F7F8FB" stroke="#D3DAE6"/>
  <rect x="760" y="696" width="250" height="16" rx="4" fill="#101828"/>
  <rect x="760" y="722" width="460" height="12" rx="4" fill="#526071"/>
</svg>
